<svg id="Layer_1" data-name="Layer 1" xmlns="http://www.w3.org/2000/svg" viewBox="0 0 29.33 30.51"><defs><style>.cls-1{fill:#193353;}.cls-2{fill:#a42035;}</style></defs><title>loginActivationCode</title><path class="cls-1" d="M325.72,239.08a5.22,5.22,0,0,0-4,4.41,14.28,14.28,0,0,0,0,5,6.81,6.81,0,0,0,5.13,5.17c3,0.51,5.92-1.69,6.86-5.16a14.28,14.28,0,0,0,0-5,5.17,5.17,0,0,0-4.07-4.42A12.71,12.71,0,0,0,325.72,239.08Zm3.17,1.65a3.42,3.42,0,0,1,3.14,3,11.92,11.92,0,0,1,.09,3.85,5.65,5.65,0,0,1-2.8,4,4.2,4.2,0,0,1-3.16,0,5.65,5.65,0,0,1-2.8-4,10.23,10.23,0,0,1,.41-4.89,3.55,3.55,0,0,1,1.66-1.68,7.3,7.3,0,0,1,2.53-.39Z" transform="translate(-316.74 -238.92)"/><path class="cls-1" d="M336.43,256.22c-0.73-.92-2.37-1.47-4.81-2l-1.23-.24-0.41.4a2.93,2.93,0,0,1-2.2.76,3,3,0,0,1-2.25-.74c-0.43-.44-0.48-0.44-1.8-0.17-2.49.54-3.95,1.21-5,2.26-1.43,1.43-1.94,3.3-2,7.18v1.87l0.74,0.7c1.46,1.38,3.9,2.25,7.37,2.61a33.15,33.15,0,0,0,4.4,0,2.11,2.11,0,0,1-.53-1,3.36,3.36,0,0,1-.08-0.72,36,36,0,0,1-5.32-.25,9.81,9.81,0,0,1-4.5-1.73c-0.35-.33-0.36-0.36-0.36-1.31a14,14,0,0,1,.8-5.22c0.54-1.12,1.84-1.95,3.85-2.48,1.33-.34,1.37-0.34,1.86,0a5.73,5.73,0,0,0,5.42.09l0.48-.27,0.18,0.18C332,256.24,336.43,256.29,336.43,256.22Z" transform="translate(-316.74 -238.92)"/><path class="cls-2" d="M344,256.7H331.23a2.12,2.12,0,0,0-2.12,2.12v8.48a2.12,2.12,0,0,0,2.12,2.12H344a2.12,2.12,0,0,0,2.12-2.12v-8.48A2.12,2.12,0,0,0,344,256.7Zm-3.49,5.66,4.49-3.85a1,1,0,0,1,.06.31v8.48a1,1,0,0,1,0,.21Zm3.49-4.6a1,1,0,0,1,.2,0l-6.56,5.62L331,257.8a1,1,0,0,1,.2,0H344Zm-13.74,9.75a1,1,0,0,1,0-.21v-8.48a1,1,0,0,1,.06-0.31l4.49,3.84Zm1,0.85a1,1,0,0,1-.3-0.06l4.6-5.25,1.72,1.48a0.53,0.53,0,0,0,.69,0l1.72-1.48,4.6,5.25a1,1,0,0,1-.3.06H331.23Z" transform="translate(-316.74 -238.92)"/></svg>