<svg id="Layer_1" data-name="Layer 1" xmlns="http://www.w3.org/2000/svg" viewBox="0 0 24.47 31.61"><defs><style>.cls-1{fill:#193353;}.cls-2{fill:#a52136;}</style></defs><title>loginDisabled</title><path class="cls-1" d="M379.49,239.86a5.33,5.33,0,0,0-4.09,4.5,14.57,14.57,0,0,0,0,5.05,6.94,6.94,0,0,0,5.23,5.27c3.06,0.52,6-1.73,7-5.27a14.57,14.57,0,0,0,0-5.05,5.28,5.28,0,0,0-4.15-4.51A13,13,0,0,0,379.49,239.86Zm3.24,1.68a3.49,3.49,0,0,1,3.2,3.07,12.15,12.15,0,0,1,.09,3.93,5.76,5.76,0,0,1-2.85,4.07,4.28,4.28,0,0,1-3.23,0,5.76,5.76,0,0,1-2.85-4.07,10.44,10.44,0,0,1,.42-5,3.62,3.62,0,0,1,1.69-1.71,7.44,7.44,0,0,1,2.58-.39Z" transform="translate(-370.33 -239.7)"/><path class="cls-1" d="M386.07,256.54a2.9,2.9,0,0,1,1.07-.79c-0.53-.16-1-0.27-1.64-0.4l-1.25-.25-0.42.41a3,3,0,0,1-2.24.78,3.11,3.11,0,0,1-2.29-.76c-0.44-.45-0.48-0.45-1.84-0.17-2.54.55-4,1.23-5.11,2.3-1.46,1.46-2,3.36-2,7.32v1.91l0.76,0.71c1.49,1.41,4,2.29,7.51,2.66a37.09,37.09,0,0,0,4.7,0c0-1.44,0-1.69,0-1.78a40.1,40.1,0,0,1-6.25-.23,10,10,0,0,1-4.59-1.76c-0.36-.34-0.37-0.37-0.37-1.33a14.23,14.23,0,0,1,.81-5.32c0.55-1.14,1.87-2,3.93-2.53,1.35-.35,1.4-0.35,1.9,0a5.84,5.84,0,0,0,5.53.09l0.49-.27,0.76,0.11C385.68,257,385.83,256.76,386.07,256.54Z" transform="translate(-370.33 -239.7)"/><g id="_237._Locked" data-name="237. Locked"><path class="cls-2" d="M393.43,261.71v-2.06a4.11,4.11,0,0,0-8.23,0v2.06a1.37,1.37,0,0,0-1.37,1.37v6.86a1.37,1.37,0,0,0,1.37,1.37h8.23a1.37,1.37,0,0,0,1.37-1.37v-6.86A1.37,1.37,0,0,0,393.43,261.71Zm-6.86-2.06a2.74,2.74,0,0,1,5.48,0v2.06h-5.48v-2.06Zm6.86,10.28H385.2v-6.86h8.23v6.86h0Zm-4.8-2.93v0.88a0.69,0.69,0,0,0,1.37,0V267A1.37,1.37,0,1,0,388.63,267Z" transform="translate(-370.33 -239.7)"/></g></svg>