<svg id="Layer_1" data-name="Layer 1" xmlns="http://www.w3.org/2000/svg" viewBox="0 0 30.69 32.12"><defs><style>.cls-1{fill:#183253;}.cls-2{fill:#a42035;}</style></defs><title>loginOASUser</title><path class="cls-1" d="M325.61,191.43a5.34,5.34,0,0,0-4.1,4.51,14.59,14.59,0,0,0,0,5.06,7,7,0,0,0,5.24,5.27c3.06,0.52,6-1.73,7-5.27a14.59,14.59,0,0,0,0-5.06,5.28,5.28,0,0,0-4.16-4.52A13,13,0,0,0,325.61,191.43Zm3.24,1.68a3.49,3.49,0,0,1,3.21,3.07,12.17,12.17,0,0,1,.09,3.93,5.77,5.77,0,0,1-2.86,4.08,4.29,4.29,0,0,1-3.23,0,5.77,5.77,0,0,1-2.86-4.08,10.45,10.45,0,0,1,.42-5,3.62,3.62,0,0,1,1.69-1.72,7.45,7.45,0,0,1,2.59-.4Z" transform="translate(-316.43 -191.26)"/><path class="cls-1" d="M329.49,220.17a36.43,36.43,0,0,1-6.34-.28,10,10,0,0,1-4.6-1.76c-0.36-.34-0.37-0.37-0.37-1.33a14.26,14.26,0,0,1,.81-5.33c0.55-1.14,1.87-2,3.93-2.53,1.36-.35,1.4-0.35,1.9,0a5.85,5.85,0,0,0,5.54.09l0.49-.27a20.45,20.45,0,0,1,2.47.46,5.35,5.35,0,0,1,2.57,1.51,5.18,5.18,0,0,1,1.84,1.36,4.11,4.11,0,0,1,.94,1.94h0.12c-0.2-2.68-.72-3.56-1.91-4.76s-2.69-1.81-5.25-2.32l-1.25-.25-0.42.41a3,3,0,0,1-2.25.78,3.11,3.11,0,0,1-2.29-.76c-0.44-.45-0.49-0.45-1.84-0.17-2.54.55-4,1.23-5.12,2.3-1.46,1.46-2,3.37-2,7.33v1.91l0.76,0.71c1.49,1.41,4,2.29,7.52,2.67a38.79,38.79,0,0,0,7.64-.23,3.43,3.43,0,0,0,.39-0.07,9.8,9.8,0,0,1-1.83-.58,11.74,11.74,0,0,1-1.41-.82" transform="translate(-316.43 -191.26)"/><path class="cls-2" d="M347,220.53l-0.55-1.28a0.5,0.5,0,0,0-.26-0.26l-7.18-3.1a1.36,1.36,0,0,0-.57-1.18,5.2,5.2,0,0,0-3-3.68,5.17,5.17,0,0,0-6.8,2.73,5.22,5.22,0,0,0,2.74,6.83,5.14,5.14,0,0,0,4,.05,5.2,5.2,0,0,0,.54-0.25l0.11,0.06,0,0a1.3,1.3,0,0,0,1.52-.4l0.63,0.25,0.49,1.12a0.77,0.77,0,0,0,1,.42h0l0.53-.23,0.24,0.56a0.77,0.77,0,0,0,1,.42h0l0.53-.23,0.24,0.56a0.78,0.78,0,0,0,1,.41l1-.46,0.16,0.07a0.5,0.5,0,0,0,.38,0h0l1.49-.65A1.33,1.33,0,0,0,347,220.53Zm-1.07.83-1.3.56-0.16-.07a0.5,0.5,0,0,0-.38,0h0l-1,.45-0.35-.82a0.5,0.5,0,0,0-.66-0.26l-0.78.34-0.35-.82a0.5,0.5,0,0,0-.66-0.26l-0.78.34L339,219.76a1.32,1.32,0,0,0-.92-0.55l-0.63-.24a0.5,0.5,0,0,0-.65.3l0,0.09a0.26,0.26,0,0,1-.19.15,0.28,0.28,0,0,1-.33-0.13,0.5,0.5,0,0,0-.6,0,4.2,4.2,0,0,1-.71.37,4.14,4.14,0,0,1-3.2,0,4.22,4.22,0,0,1-2.21-5.51A4.16,4.16,0,0,1,335,212a4.2,4.2,0,0,1,2.48,3.16,0.5,0.5,0,0,0,.3.38,0.35,0.35,0,0,1,.19.44,0.5,0.5,0,0,0,0,.43l0.07,0.11a0.5,0.5,0,0,0,.23.21l7.29,3.14,0.48,1.1A0.32,0.32,0,0,1,345.94,221.36Z" transform="translate(-316.43 -191.26)"/><path class="cls-2" d="M332.85,216.94a1.74,1.74,0,0,1-1.35,0,1.77,1.77,0,0,1-.93-2.32,1.76,1.76,0,0,1,2.31-.93,1.77,1.77,0,0,1,.93,2.32A1.74,1.74,0,0,1,332.85,216.94Zm-0.94-2.34a0.75,0.75,0,0,0-.41.4,0.77,0.77,0,0,0,.4,1,0.75,0.75,0,0,0,1-.4,0.77,0.77,0,0,0-.4-1A0.75,0.75,0,0,0,331.91,214.59Z" transform="translate(-316.43 -191.26)"/><path class="cls-2" d="M344.6,221a0.5,0.5,0,0,1-.39,0l-5.8-2.5a0.5,0.5,0,0,1,.4-0.92l5.8,2.5A0.5,0.5,0,0,1,344.6,221Z" transform="translate(-316.43 -191.26)"/></svg>