<svg id="Layer_1" data-name="Layer 1" xmlns="http://www.w3.org/2000/svg" viewBox="0 0 31.88 30.66"><defs><style>.cls-1{fill:#193353;}.cls-2{fill:#a52136;}</style></defs><title>loginDemo</title><path class="cls-1" d="M379.47,191.53a5.33,5.33,0,0,0-4.09,4.5,14.57,14.57,0,0,0,0,5.05,6.94,6.94,0,0,0,5.23,5.27c3.06,0.52,6-1.73,7-5.27a14.57,14.57,0,0,0,0-5.05,5.28,5.28,0,0,0-4.15-4.51A13,13,0,0,0,379.47,191.53Zm3.24,1.68a3.49,3.49,0,0,1,3.2,3.07,12.15,12.15,0,0,1,.09,3.93,5.76,5.76,0,0,1-2.85,4.07,4.28,4.28,0,0,1-3.23,0,5.76,5.76,0,0,1-2.85-4.07,10.44,10.44,0,0,1,.42-5,3.62,3.62,0,0,1,1.69-1.71,7.44,7.44,0,0,1,2.58-.39Z" transform="translate(-370.31 -191.36)"/><path class="cls-1" d="M386.73,219.8l-0.78.14a1,1,0,0,1-.23.46c-0.78.87-2.18,0.77-3.24,0.76a1.06,1.06,0,0,1-.8-0.24,1.28,1.28,0,0,1-.18-0.72A33.81,33.81,0,0,1,377,220a10,10,0,0,1-4.59-1.76c-0.36-.34-0.37-0.37-0.37-1.33a14.24,14.24,0,0,1,.81-5.32c0.55-1.14,1.87-2,3.93-2.53,1.35-.35,1.4-0.35,1.9,0a5.84,5.84,0,0,0,5.53.09l0.49-.27a20.41,20.41,0,0,1,2.47.46,5.57,5.57,0,0,1,2.62,1.65,4,4,0,0,1,.49.83c0.62,0,1.25,0,1.87,0a5.73,5.73,0,0,0-1.43-2.38c-1.08-1.09-2.68-1.8-5.25-2.31l-1.25-.25-0.42.41a3,3,0,0,1-2.24.78,3.11,3.11,0,0,1-2.29-.76c-0.44-.45-0.48-0.45-1.84-0.17-2.54.55-4,1.23-5.11,2.3-1.46,1.46-2,3.36-2,7.32v1.91l0.76,0.71c1.49,1.41,4,2.29,7.51,2.66a38.73,38.73,0,0,0,7.62-.23,11.2,11.2,0,0,0,2.54-.7c-0.67,0-.73,0-1,0a1.29,1.29,0,0,1-.85-0.12A1.55,1.55,0,0,1,386.73,219.8Z" transform="translate(-370.31 -191.36)"/><path class="cls-2" d="M381.94,220.77v-8.54h1.81a2.1,2.1,0,0,1,1.6.58,2.28,2.28,0,0,1,.55,1.63v4a2.38,2.38,0,0,1-.58,1.77,2.3,2.3,0,0,1-1.67.57h-1.7Zm1.22-7.39v6.24h0.56a0.91,0.91,0,0,0,.73-0.26,1.25,1.25,0,0,0,.22-0.81v-4.12a1.3,1.3,0,0,0-.2-0.78,0.87,0.87,0,0,0-.74-0.28h-0.56Z" transform="translate(-370.31 -191.36)"/><path class="cls-2" d="M387.05,220.77v-8.54h3.65v1.15h-2.42v2.51h2.11V217h-2.11v2.51h2.42v1.22h-3.65Z" transform="translate(-370.31 -191.36)"/><path class="cls-2" d="M391.49,220.77v-8.54h1.18l1.57,4.52h0l1.56-4.52H397v8.54h-1.22v-5.2h0l-1.21,3.67h-0.61l-1.2-3.67h0v5.2h-1.22Z" transform="translate(-370.31 -191.36)"/><path class="cls-2" d="M398.09,214.24a2.2,2.2,0,0,1,.18-0.91,1.93,1.93,0,0,1,.48-0.66,2,2,0,0,1,.65-0.38,2.18,2.18,0,0,1,2.14.38,2,2,0,0,1,.47.66,2.18,2.18,0,0,1,.18.91v4.51a2.16,2.16,0,0,1-.18.92,1.9,1.9,0,0,1-.47.64,2.05,2.05,0,0,1-.67.4,2.13,2.13,0,0,1-1.48,0,1.92,1.92,0,0,1-.65-0.4,1.83,1.83,0,0,1-.48-0.64,2.18,2.18,0,0,1-.18-0.92v-4.51Zm1.22,4.51a0.81,0.81,0,0,0,.25.65,0.91,0.91,0,0,0,1.16,0,0.81,0.81,0,0,0,.25-0.65v-4.51a0.81,0.81,0,0,0-.25-0.65,0.91,0.91,0,0,0-1.16,0,0.81,0.81,0,0,0-.25.65v4.51Z" transform="translate(-370.31 -191.36)"/></svg>